<?xml version="1.0"?>
<svg xmlns="http://www.w3.org/2000/svg" xmlns:xlink="http://www.w3.org/1999/xlink" xmlns:svgjs="http://svgjs.com/svgjs" version="1.1" width="512" height="512" x="0" y="0" viewBox="0 0 682.66535 682.66535" style="enable-background:new 0 0 512 512" xml:space="preserve" class=""><g><path xmlns="http://www.w3.org/2000/svg" d="m320 115c-31.128906 0-56.25 25.121094-56.25 56.25 0 31.121094 25.121094 56.25 56.25 56.25s56.25-25.128906 56.25-56.25c0-31.128906-25.121094-56.25-56.25-56.25zm0 0c-31.128906 0-56.25 25.121094-56.25 56.25 0 31.121094 25.121094 56.25 56.25 56.25s56.25-25.128906 56.25-56.25c0-31.128906-25.121094-56.25-56.25-56.25zm0 0c-31.128906 0-56.25 25.121094-56.25 56.25 0 31.121094 25.121094 56.25 56.25 56.25s56.25-25.128906 56.25-56.25c0-31.128906-25.121094-56.25-56.25-56.25zm248.371094-115c-9.375 27.75 3.003906 52.5 20.625 64.871094 12.378906 8.625 30.753906 13.125 51.003906 6.753906v-71.625zm-248.371094 115c-31.128906 0-56.25 25.121094-56.25 56.25 0 31.121094 25.121094 56.25 56.25 56.25s56.25-25.128906 56.25-56.25c0-31.128906-25.121094-56.25-56.25-56.25zm0 0c-31.128906 0-56.25 25.121094-56.25 56.25 0 31.121094 25.121094 56.25 56.25 56.25s56.25-25.128906 56.25-56.25c0-31.128906-25.121094-56.25-56.25-56.25zm0 0c-31.128906 0-56.25 25.121094-56.25 56.25 0 31.121094 25.121094 56.25 56.25 56.25s56.25-25.128906 56.25-56.25c0-31.128906-25.121094-56.25-56.25-56.25zm247.25-19.75c-31.503906-22.125-45.375-58.878906-37.875-95.25h-418.75c6.746094 33.75-5.625 65.25-25.5 85.121094-24.203125 23.65625-58.671875 31.722656-85.125 25.503906v118.75c36.371094-7.5 73.125 6.371094 95.25 37.875 13.875 19.496094 20.625 45.371094 15.375 72.75h418.75c-5.625-30.375 3.371094-58.5 19.875-78.75 20.25-24.75 54.375-39 90.75-31.875v-118.75c-28.914062 5.097656-53.4375-1.378906-72.75-15.375zm-378.5 94.75h-37.5v-37.5h37.5zm131.25 75c-51.75 0-93.75-41.996094-93.75-93.75 0-51.75 42-93.75 93.75-93.75 51.746094 0 93.75 42 93.75 93.75 0 51.753906-42.003906 93.75-93.75 93.75zm168.75-75h-37.5v-37.5h37.5zm-168.75-75c-31.128906 0-56.25 25.121094-56.25 56.25 0 31.121094 25.121094 56.25 56.25 56.25s56.25-25.128906 56.25-56.25c0-31.128906-25.121094-56.25-56.25-56.25zm258.125 170.25c-11.628906 13.875-16.5 33.371094-9.753906 54.75h71.628906v-72.003906c-25.875-7.871094-48.75 1.503906-61.875 17.253906zm-258.125-170.25c-31.128906 0-56.25 25.121094-56.25 56.25 0 31.121094 25.121094 56.25 56.25 56.25s56.25-25.128906 56.25-56.25c0-31.128906-25.121094-56.25-56.25-56.25zm0 0c-31.128906 0-56.25 25.121094-56.25 56.25 0 31.121094 25.121094 56.25 56.25 56.25s56.25-25.128906 56.25-56.25c0-31.128906-25.121094-56.25-56.25-56.25zm0 0c-31.128906 0-56.25 25.121094-56.25 56.25 0 31.121094 25.121094 56.25 56.25 56.25s56.25-25.128906 56.25-56.25c0-31.128906-25.121094-56.25-56.25-56.25zm0 0c-31.128906 0-56.25 25.121094-56.25 56.25 0 31.121094 25.121094 56.25 56.25 56.25s56.25-25.128906 56.25-56.25c0-31.128906-25.121094-56.25-56.25-56.25zm-255.128906 174c-12.371094-17.628906-37.121094-30-64.871094-21.003906v72.003906h71.625c6.378906-20.25 1.875-38.628906-6.753906-51zm6.753906-289h-71.625v71.625c23.621094 7.875 45 .753906 58.5-13.125 13.496094-13.5 20.625-34.871094 13.125-58.5zm0 0" fill="#d51818" data-original="#000000" style="" class=""/><path xmlns="http://www.w3.org/2000/svg" d="m301.25 377.5h37.5v187.5h-37.5zm0 0" fill="#d51818" data-original="#000000" style="" class=""/><path xmlns="http://www.w3.org/2000/svg" d="m226.25 452.5h37.5v150h-37.5zm0 0" fill="#d51818" data-original="#000000" style="" class=""/><path xmlns="http://www.w3.org/2000/svg" d="m301.25 602.5h37.5v37.5h-37.5zm0 0" fill="#d51818" data-original="#000000" style="" class=""/><path xmlns="http://www.w3.org/2000/svg" d="m151.25 377.5h37.5v112.5h-37.5zm0 0" fill="#d51818" data-original="#000000" style="" class=""/><path xmlns="http://www.w3.org/2000/svg" d="m151.25 527.5h37.5v37.5h-37.5zm0 0" fill="#d51818" data-original="#000000" style="" class=""/><path xmlns="http://www.w3.org/2000/svg" d="m451.25 377.5h37.5v112.5h-37.5zm0 0" fill="#d51818" data-original="#000000" style="" class=""/><path xmlns="http://www.w3.org/2000/svg" d="m451.25 527.5h37.5v37.5h-37.5zm0 0" fill="#d51818" data-original="#000000" style="" class=""/><path xmlns="http://www.w3.org/2000/svg" d="m226.25 377.5h37.5v37.5h-37.5zm0 0" fill="#d51818" data-original="#000000" style="" class=""/><path xmlns="http://www.w3.org/2000/svg" d="m376.25 452.5h37.5v150h-37.5zm0 0" fill="#d51818" data-original="#000000" style="" class=""/><path xmlns="http://www.w3.org/2000/svg" d="m376.25 377.5h37.5v37.5h-37.5zm0 0" fill="#d51818" data-original="#000000" style="" class=""/></g></svg>
